<svg xmlns="http://www.w3.org/2000/svg" viewBox="0 0 11 13">
  <rect x="1" y="0" width="2" height="1" fill="black" />
  <rect x="7" y="0" width="2" height="1" fill="black" />
  
  <rect x="0" y="1" width="1" height="10" fill="black" />
  <rect x="1" y="1" width="2" height="1" fill="#fcf5bd" />
  <rect x="3" y="1" width="1" height="2" fill="black" />
  <rect x="6" y="1" width="1" height="2" fill="black" />
  <rect x="7" y="1" width="2" height="1" fill="#fcf5bd" />
  <rect x="9" y="1" width="1" height="12" fill="black" />
  
  <rect x="1" y="2" width="1" height="1" fill="#fcf5bd" />
  <rect x="2" y="2" width="1" height="6" fill="#FFD700" />
  <rect x="3" y="2" width="2" height="2" fill="black" />
  <rect x="7" y="2" width="2" height="5" fill="#FFD700" />
  <rect x="9" y="2" width="2" height="10" fill="black" />

  <rect x="1" y="3" width="3" height="1" fill="#FFD700" />
  <rect x="3" y="3" width="1" height="2" fill="#FFD700" />
  <rect x="4" y="3" width="2" height="1" fill="black" />
  <rect x="6" y="3" width="3" height="3" fill="#FFD700" />

  <rect x="1" y="4" width="1" height="1" fill="#fcf5bd" />
  <rect x="2" y="4" width="7" height="2" fill="#FFD700" />

  <rect x="1" y="5" width="2" height="2" fill="#FFD700" />
  <rect x="1" y="5" width="8" height="1" fill="#FFD700" />
  <rect x="4" y="5" width="2" height="2" fill="#FFD700" />

  <rect x="3" y="6" width="1" height="7" fill="black" />
  <rect x="6" y="6" width="1" height="5" fill="black" />
  <rect x="7" y="6" width="2" height="1" fill="#FFD700" />

  <rect x="1" y="7" width="1" height="1" fill="#FFA500" />
  <rect x="2" y="7" width="1" height="1" fill="#FFD700" />
  <rect x="3" y="7" width="4" height="3" fill="black" />
  <rect x="7" y="7" width="1" height="1" fill="#FFA500" />
  <rect x="8" y="7" width="1" height="1" fill="#FFD700" />

  <rect x="1" y="8" width="1" height="1" fill="#FFD700" />
  <rect x="2" y="8" width="1" height="1" fill="#FFA500" />
  <rect x="3" y="8" width="4" height="1" fill="black" />
  <rect x="7" y="8" width="1" height="1" fill="#FFD700" />
  <rect x="8" y="8" width="1" height="1" fill="#FFA500" />

  <rect x="1" y="9" width="1" height="1" fill="#FFA500" />
  <rect x="2" y="9" width="1" height="1" fill="#FFD700" />
  <rect x="3" y="9" width="4" height="1" fill="black" />
  <rect x="7" y="9" width="1" height="1" fill="#FFA500" />
  <rect x="8" y="9" width="1" height="1" fill="#FFD700" />

  <rect x="1" y="10" width="1" height="1" fill="#FF4500" />
  <rect x="2" y="10" width="1" height="1" fill="#FFA500" />
  <rect x="3" y="9" width="2" height="3" fill="black" />
  <rect x="7" y="10" width="1" height="1" fill="#FF4500" />
  <rect x="8" y="10" width="1" height="1" fill="#FFA500" />

  <rect x="1" y="11" width="3" height="1" fill="black" />
  <rect x="7" y="11" width="3" height="1" fill="black" />

  <rect x="2" y="11" width="2" height="2" fill="black" />
  <rect x="8" y="11" width="2" height="2" fill="black" />
  
</svg>